<?xml version="1.0" encoding="utf-8"?>
<!-- Generator: Adobe Illustrator 16.0.0, SVG Export Plug-In . SVG Version: 6.00 Build 0)  -->
<!DOCTYPE svg PUBLIC "-//W3C//DTD SVG 1.1//EN" "http://www.w3.org/Graphics/SVG/1.1/DTD/svg11.dtd">
<svg version="1.1" id="Layer_1" xmlns="http://www.w3.org/2000/svg" xmlns:xlink="http://www.w3.org/1999/xlink" x="0px" y="0px"
	 width="431.314px" height="528.384px" viewBox="0 0 431.314 528.384" enable-background="new 0 0 431.314 528.384"
	 xml:space="preserve">
<rect fill-rule="evenodd" clip-rule="evenodd" width="431.314" height="528.384"/>
<path fill-rule="evenodd" clip-rule="evenodd" fill="#FFDE17" d="M188.037,445.559c0.219,0.099,0.439,0.185,0.662,0.242
	c-0.171,0.945-0.331,1.928-0.484,2.928c0.363,7.372,0.502,14.759,0.509,22.142c0.001,1.41-1.558,1.808-2.45,1.201
	c-0.161,5.357-0.165,10.775-0.023,15.971c1.202-0.025,2.113,0.074,2.877,0.152c3.543-5.562,7.735-10.693,11.356-16.246
	c2.717-4.166,5.175-8.577,6.546-13.387c1.533-5.381,2.449-10.954,3.722-16.402c1.424-6.096,2.954-12.175,4.834-18.148
	c1.689-5.367,3.864-10.548,5.603-15.895c1.401-4.313,2.544-8.665,3.382-13.061c-1.982-1.968-1.838-5.863,0.247-8.024
	c-0.397-0.622-1.407-0.634-1.225-1.837c0.01-2.235,1.74-2.75,2.448-4.285c0.439-1.662-2.887,0.438-2.448-1.225
	c-0.366-1.591,0.245-2.203,1.837-1.836c-3.146-3.451,0.605-4.988-0.612-9.184c2.708-2.306,1.95-5.516,2.448-9.182
	c0.443-3.26,4.223-8.561,2.449-13.469c1.955-2.123,2.045-3.375,3.061-5.51c0.242-1.467-2.788,0.34-1.836-1.836h2.448
	c0.274-2.436,0.618-5.617,2.448-7.959c-0.82-4.127-0.086-6.513,2.449-8.57c0.472-2.92-2.18-2.717-1.836-5.51
	c5.541-1.601,2.912-11.372,7.958-13.469c-3.413-3.752,6.226-7.047,1.837-11.631c2.564-2.801,1.042-4.727,1.224-10.407
	c1.278-0.763,1.68-2.401,3.062-3.062c2.756-17.038,12.146-27.44,14.08-45.301c1.125-0.916,1.525-2.555,3.061-3.061
	c-0.044-4.534,1.48-7.498,4.285-9.183v-4.286c3.729-2.559,7.498-7.782,6.122-13.468c0.919-4.049,7.326-4.238,4.897-9.795h1.836
	c-1.201-5.502,4.081-5.628,2.449-9.795c6.21-0.571,2.719-7.853,6.734-9.795c-0.281-1.556-2.646-1.027-3.061-2.449
	c-0.1-0.712,0.135-1.089,0.611-1.225c2.414-0.168,1.872,2.617,4.285,2.449c0.655-2.287-1.52-1.745-1.225-3.673
	c-1.967-0.377-0.838,2.203-2.448,0.612c0.261-2.885,2.356-0.764,2.448-4.285c1.885-0.456,1.178,1.681,3.062,1.225
	c0.665-0.151,0.415-1.217,1.225-1.225c0.466-2.303-3.251-0.422-2.448-3.061c1.635,1.689,1.33-0.723,3.061-0.612
	c0.491,0.241,0.886,0.58,1.227,0.972c2.319-3.768,4.891-7.4,6.963-11.339c2.592-4.929,2.799-10.501,4.113-15.729
	c-0.511-0.605-0.951-1.28-1.283-2.063c0.33-0.703,0.369-1.447,0.307-2.188c-1.419-0.273-1.532-2.332-0.339-2.889
	c0.003-0.147,0.011-0.292,0.032-0.433c0.215-1.413,2.692-1.96,0.611-3.061c-0.044-2.084,1.801-2.28,3.062-3.061
	c-1.067-2.051-0.358-3.91,1.224-4.898v-4.285c1.426-2.249,2.759-4.588,2.449-8.57c2.786-3.336,3.889-8.355,7.346-11.02
	c0.21-6.117,4.219-8.433,4.285-14.692c2.41-1.875,3.164-5.407,6.734-6.122c0.984-0.837-1.028-4.626,0.613-6.122
	c3.344,2.309,2.852-1.639,3.672-4.897h-2.448c-2.343,2.351-4.874,4.512-7.958,6.122c-0.979,0.859-1.564,2.109-1.837,3.673
	c-4.5,0.397-6.351,3.444-9.795,4.897c-0.39,1.855-1.72,2.77-3.673,3.061c-1.37,3.324-2.799,6.589-6.122,7.958
	c-0.937,4.121-5.507,8.923-9.183,12.244c-0.203,8.979-8.09,10.275-7.959,19.59c-1.596-0.373-2.262,0.185-2.703,0.967
	c-0.842,11.576-7.339,21.118-14.21,30.409c0.544,0.886,0.29,2.032-1.355,1.827c-0.196,0.263-0.392,0.526-0.587,0.789
	c0.021,1.791-1.463,2.076-1.959,3.351c-0.506,1.73,0.863,1.586,0.613,3.061c0.23,1.863-2.226,1.04-2.449,2.448
	c-0.539,1.967,2.018,0.839,1.836,2.449c-2.584,3.538-3.456,8.787-6.121,12.244c0.248,1.179,2.373,0.483,1.836,2.449
	c-2.117,0.497-2.584-1.143-3.673,0c-0.517,2.557,1.19,2.891,1.225,4.897c-0.905,0.709-1.543,0.709-2.448,0
	c-0.093,1.52,0.316,2.541,1.224,3.061c-1.677,2.339-4.954,4.879-2.448,7.958c-4.432,4.548-3.602,14.356-8.57,18.366
	c0.824,9.564-8.322,14.001-9.795,23.263c0.067,1.156,2.023,0.425,1.836,1.837c-0.536,1.912-1.701,3.196-4.285,3.061
	c-0.836,2.864-1.228,4.193-0.612,7.347c-2.412,0.648-3.673,2.45-4.285,4.897c0.26,1.373,1.313,1.951,1.837,3.061
	c-1.653,1.125-1.756,0.425-1.225,3.061c-1.168,1.149-1.107-0.363-3.061,0c2.352,3.585-3.234,5.472,0,7.346
	c-2.204,2.049-5.408,5.515-2.449,9.183c-6.662,0.119-1.247,7.948-3.674,10.407c-1.98,0.757-0.468-1.98-2.448-1.225
	c-0.647,2.281,1.289,1.977,1.837,3.062c-2.647,2.606-0.727,6.124-4.285,7.958v6.734c-3.858,0.02-1.871,5.883-4.898,6.734
	c0.922,7.138,0.049,8.4-2.448,13.467c-0.471,0.223-1.401-0.277-1.836,0c-1.188,0.76-3.829,5.665-4.285,7.347
	c-0.794,2.923-0.838,7.979-2.449,11.632c2.169,0.279,2,2.898,1.837,5.51c-4.138,0.83-3.298,8.265-3.673,11.02
	c-0.648,1.8-2.065,2.832-3.061,4.285c0.398,0.622,1.408,0.633,1.225,1.836c-3.711,0.055-4.623-7.175-2.449-9.183
	c-1.669-2.412-3.213-4.949-2.449-9.795c-3.262-1.636-1.66-8.136-5.51-9.183c-0.259-1.279,0.42-1.621,0.612-2.449
	c-2.025-4.709-2.798-10.67-3.673-16.528c-0.688-1.558-1.503-2.985-2.449-4.286c-1.182-14.121-7.583-23.025-8.57-37.343
	c-3.034-5.632-4.598-11.042-5.51-18.978c-0.439-3.816-2.598-6.894-3.061-10.407c-0.2-1.517,0.357-3.372,0-4.897
	c-1.152-4.927-5.008-8.993-4.285-14.692c-0.962-0.466-0.915-1.942-2.449-1.836c-0.05-7.126-3.632-13.191-5.51-19.59
	c-0.714-2.434-0.422-5.533-1.224-7.958c-1.372-4.145-5.477-7.684-4.897-12.244c-0.598-0.626-1.21-1.239-1.837-1.836
	c-0.442-1.871,0.626-2.231,0.612-3.673c-0.563-1.885-2.45-2.447-3.673-3.673c-0.188-2.057,0.817-5.307-1.837-4.897
	c-0.259-1.28,0.42-1.621,0.612-2.449c-1.316-1.426-1.765-2.992-2.073-4.684c-0.786-0.163-1.475-0.857-1.213-1.86
	c0.197-0.752,0.325-1.514,0.418-2.28c-0.197-0.715-0.45-1.446-0.805-2.195h0.954c0.001-0.211-0.009-0.422-0.013-0.633
	c-0.293-0.802-0.274-1.513-0.157-2.254c-0.653-5.351-3.058-10.696-5.467-15.189c-2.595-4.84-5.613-9.497-9.077-13.78
	c-1.021,0.114-1.827,0.442-2.156,1.248c-2.242,0.751-0.612-1.65-1.224-2.449c-1.57-2.047-5.382-2.313-6.122-4.897
	c-1.841-0.617-1.084,1.364-1.225,2.449c-2.906-2.288-4.527-5.603-7.346-7.958c-2.453-2.05-6.004-2.954-7.346-6.122
	c-1.495-1.334-2.921,0.467-4.897-0.612c-0.387-0.211-0.796-2.272-1.224-2.449c-0.683-0.281-1.723,0.163-2.449,0
	c-3.131-0.703-5.304-3.341-9.795-2.449c-2.568-2.329-5.955-3.84-9.795-4.897c0.577,1.036,1.303,3.01-0.612,5.51
	c0.257,1.375,3.249,0.017,3.673,1.224c1.493,4.125,5.293,6.708,7.958,9.795c2.834,3.283,5.401,6.848,9.183,9.183
	c0.678,2.382,1.693,4.429,3.061,6.122v5.51c0.511,1.173,1.193,2.174,1.944,3.108c0.46,0.006,0.921,0.209,1.243,0.697
	c0.578,0.876,1.137,1.767,1.69,2.662c0.977,1.159,1.869,2.404,2.469,3.94c-0.033,0.024-0.068,0.048-0.102,0.073
	c3.603,6.413,6.609,13.194,9.066,20.09c0.821,2.305,1.61,4.657,2.323,7.041c0.855,0.599,1.876,1.031,3.405,0.957
	c3.873,7.758,6.671,16.591,11.631,23.263c0.269,3.405,0.951,6.396,3.673,7.346c0.793,0.955-1.218,1.268-1.224,1.225
	c0.302,1.983,4.125,3.901,1.224,5.51c3.484,1.142,1.079,4.595,4.286,5.509c0.208,1.229-0.126,1.916-1.225,1.837
	c0.94,1.532,4.919,3.211,2.449,6.122c0.167,1.262,2.71,0.146,2.449,1.836c-1.125,3.951-1.696,8.873,3.061,9.795
	c0.293,1.926-0.872,2.394-1.225,3.673c0.715,1.122,2.347,1.327,3.061,2.449c0.98,2.409-2.644,0.213-2.449,1.836
	c-0.014,2.056,2.426,1.655,3.673,2.449c1.898,1.918,1.604,4.812,2.449,7.346c1.785,5.355,3.385,10.476,5.509,17.753
	c1.275,4.368,1.806,7.692,3.061,12.856c1.117,4.596,3.461,7.58,3.061,14.08c1.919,3.26,2.276,5.952,3.061,11.02
	c1.762,11.375,6.218,23.842,7.958,34.895c0.674,4.284-0.797,8.89,2.449,12.243c-0.137,9.497,3.639,15.612,1.836,25.1
	c2.962,3.771,1.826,6.841,0.807,10.688c1.044,4.19,2.66,8.238,4.038,12.388c2.209,6.651,3.313,13.602,4.231,20.535
	C187.041,431.919,187.638,438.732,188.037,445.559z"/>
</svg>
